<svg width="2750" height="2246" xmlns="http://www.w3.org/2000/svg" xmlns:xlink="http://www.w3.org/1999/xlink" xml:space="preserve" overflow="hidden"><g transform="translate(-825 -201)"><g><path d="M825 206 3575 206 3575 2443 825 2443Z" fill="#F8F9FA" fill-rule="evenodd" fill-opacity="1"/><path d="M3385.81 309C3395.31 309 3403 309 3403 309L3403 481C3403 481 3395.31 481 3385.81 481L1014.19 481C1004.69 481 997 481 997 481L997 309C997 309 1004.69 309 1014.19 309Z" fill="#673AB7" fill-rule="evenodd" fill-opacity="0.901961"/><text fill="#FFFFFF" fill-opacity="1" font-family="Microsoft JhengHei,Microsoft JhengHei_MSFontService,sans-serif" font-style="normal" font-variant="normal" font-weight="700" font-stretch="normal" font-size="83" text-anchor="start" direction="ltr" writing-mode="lr-tb" unicode-bidi="normal" text-decoration="none" transform="matrix(1 0 0 1 1952.5 410)">任務描述模板</text><path d="M3376.02 550.536C3391.21 550.536 3403.52 550.536 3403.52 550.536L3403.52 2097.54C3403.52 2097.54 3391.21 2097.54 3376.02 2097.54L1025.02 2097.54C1009.83 2097.54 997.518 2097.54 997.518 2097.54L997.518 550.536C997.518 550.536 1009.83 550.536 1025.02 550.536Z" stroke="#DDDDDD" stroke-width="3.4375" stroke-linecap="butt" stroke-linejoin="miter" stroke-miterlimit="8" stroke-opacity="1" fill="#FFFFFF" fill-rule="evenodd" fill-opacity="1"/><path d="M3375.52 550.036C3390.71 550.036 3403.02 550.036 3403.02 550.036L3403.02 756.036C3403.02 756.036 3390.71 756.036 3375.52 756.036L1024.52 756.036C1009.33 756.036 997.018 756.036 997.018 756.036L997.018 550.036C997.018 550.036 1009.33 550.036 1024.52 550.036Z" fill="#EDE7F6" fill-rule="evenodd" fill-opacity="1"/><text fill="#311B92" fill-opacity="1" font-family="Apple Color Emoji,Apple Color Emoji_MSFontService,sans-serif" font-style="normal" font-variant="normal" font-weight="700" font-stretch="normal" font-size="69" text-anchor="start" direction="ltr" writing-mode="lr-tb" unicode-bidi="normal" text-decoration="none" transform="matrix(1 0 0 1 1100 669)">🛒</text><text fill="#311B92" fill-opacity="1" font-family="Arial,Arial_MSFontService,sans-serif" font-style="normal" font-variant="normal" font-weight="700" font-stretch="normal" font-size="69" text-anchor="start" direction="ltr" writing-mode="lr-tb" unicode-bidi="normal" text-decoration="none" transform="matrix(1 0 0 1 1169.9 669)"> </text><text fill="#311B92" fill-opacity="1" font-family="Microsoft JhengHei,Microsoft JhengHei_MSFontService,sans-serif" font-style="normal" font-variant="normal" font-weight="700" font-stretch="normal" font-size="69" text-anchor="start" direction="ltr" writing-mode="lr-tb" unicode-bidi="normal" text-decoration="none" transform="matrix(1 0 0 1 1188.8 669)">任務：實作購物車功能</text><text fill="#673AB7" fill-opacity="1" font-family="Apple Color Emoji,Apple Color Emoji_MSFontService,sans-serif" font-style="normal" font-variant="normal" font-weight="700" font-stretch="normal" font-size="62" text-anchor="start" direction="ltr" writing-mode="lr-tb" unicode-bidi="normal" text-decoration="none" transform="matrix(1 0 0 1 1103.92 860)">📝</text><text fill="#673AB7" fill-opacity="1" font-family="Microsoft JhengHei,Microsoft JhengHei_MSFontService,sans-serif" font-style="normal" font-variant="normal" font-weight="700" font-stretch="normal" font-size="62" text-anchor="start" direction="ltr" writing-mode="lr-tb" unicode-bidi="normal" text-decoration="none" transform="matrix(1 0 0 1 1184.12 860)">描述</text><path d="M3286.28 928.065C3293.87 928.065 3300.03 928.065 3300.03 928.065L3300.03 1203.07C3300.03 1203.07 3293.87 1203.07 3286.28 1203.07L1113.78 1203.07C1106.18 1203.07 1100.03 1203.07 1100.03 1203.07L1100.03 928.065C1100.03 928.065 1106.18 928.065 1113.78 928.065Z" fill="#F3E5F5" fill-rule="evenodd" fill-opacity="1"/><text fill="#4A148C" fill-opacity="1" font-family="Arial,Arial_MSFontService,sans-serif" font-style="normal" font-variant="normal" font-weight="400" font-stretch="normal" font-size="41" text-anchor="start" direction="ltr" writing-mode="lr-tb" unicode-bidi="normal" text-decoration="none" transform="matrix(1 0 0 1 1168.75 1027)">• </text><text fill="#4A148C" fill-opacity="1" font-family="Microsoft JhengHei,Microsoft JhengHei_MSFontService,sans-serif" font-style="normal" font-variant="normal" font-weight="400" font-stretch="normal" font-size="41" text-anchor="start" direction="ltr" writing-mode="lr-tb" unicode-bidi="normal" text-decoration="none" transform="matrix(1 0 0 1 1194.53 1027)">功能：讓用戶可以管理購物車內的商品</text><text fill="#4A148C" fill-opacity="1" font-family="Arial,Arial_MSFontService,sans-serif" font-style="normal" font-variant="normal" font-weight="400" font-stretch="normal" font-size="41" text-anchor="start" direction="ltr" writing-mode="lr-tb" unicode-bidi="normal" text-decoration="none" transform="matrix(1 0 0 1 1168.75 1130)">• </text><text fill="#4A148C" fill-opacity="1" font-family="Microsoft JhengHei,Microsoft JhengHei_MSFontService,sans-serif" font-style="normal" font-variant="normal" font-weight="400" font-stretch="normal" font-size="41" text-anchor="start" direction="ltr" writing-mode="lr-tb" unicode-bidi="normal" text-decoration="none" transform="matrix(1 0 0 1 1194.53 1130)">預期結果：用戶可以新增、修改、刪除商品</text><text fill="#673AB7" fill-opacity="1" font-family="Apple Color Emoji,Apple Color Emoji_MSFontService,sans-serif" font-style="normal" font-variant="normal" font-weight="700" font-stretch="normal" font-size="62" text-anchor="start" direction="ltr" writing-mode="lr-tb" unicode-bidi="normal" text-decoration="none" transform="matrix(1 0 0 1 1096.56 1278)">📋</text><text fill="#673AB7" fill-opacity="1" font-family="Arial,Arial_MSFontService,sans-serif" font-style="normal" font-variant="normal" font-weight="700" font-stretch="normal" font-size="62" text-anchor="start" direction="ltr" writing-mode="lr-tb" unicode-bidi="normal" text-decoration="none" transform="matrix(1 0 0 1 1159.58 1278)"> </text><text fill="#673AB7" fill-opacity="1" font-family="Microsoft JhengHei,Microsoft JhengHei_MSFontService,sans-serif" font-style="normal" font-variant="normal" font-weight="700" font-stretch="normal" font-size="62" text-anchor="start" direction="ltr" writing-mode="lr-tb" unicode-bidi="normal" text-decoration="none" transform="matrix(1 0 0 1 1176.77 1278)">拆解步驟</text><path d="M3286.28 1306.1C3293.87 1306.1 3300.03 1306.1 3300.03 1306.1L3300.03 1650.1C3300.03 1650.1 3293.87 1650.1 3286.28 1650.1L1113.78 1650.1C1106.18 1650.1 1100.03 1650.1 1100.03 1650.1L1100.03 1306.1C1100.03 1306.1 1106.18 1306.1 1113.78 1306.1Z" fill="#F3E5F5" fill-rule="evenodd" fill-opacity="1"/><text fill="#4A148C" fill-opacity="1" font-family="Arial,Arial_MSFontService,sans-serif" font-style="normal" font-variant="normal" font-weight="400" font-stretch="normal" font-size="41" text-anchor="start" direction="ltr" writing-mode="lr-tb" unicode-bidi="normal" text-decoration="none" transform="matrix(1 0 0 1 1168.75 1403)">1. </text><text fill="#4A148C" fill-opacity="1" font-family="Apple Color Emoji,Apple Color Emoji_MSFontService,sans-serif" font-style="normal" font-variant="normal" font-weight="400" font-stretch="normal" font-size="41" text-anchor="start" direction="ltr" writing-mode="lr-tb" unicode-bidi="normal" text-decoration="none" transform="matrix(1 0 0 1 1214.58 1403)">✅</text><text fill="#4A148C" fill-opacity="1" font-family="Arial,Arial_MSFontService,sans-serif" font-style="normal" font-variant="normal" font-weight="400" font-stretch="normal" font-size="41" text-anchor="start" direction="ltr" writing-mode="lr-tb" unicode-bidi="normal" text-decoration="none" transform="matrix(1 0 0 1 1255.83 1403)"> </text><text fill="#4A148C" fill-opacity="1" font-family="Microsoft JhengHei,Microsoft JhengHei_MSFontService,sans-serif" font-style="normal" font-variant="normal" font-weight="400" font-stretch="normal" font-size="41" text-anchor="start" direction="ltr" writing-mode="lr-tb" unicode-bidi="normal" text-decoration="none" transform="matrix(1 0 0 1 1267.29 1403)">新增商品功能</text><text fill="#4A148C" fill-opacity="1" font-family="Arial,Arial_MSFontService,sans-serif" font-style="normal" font-variant="normal" font-weight="400" font-stretch="normal" font-size="41" text-anchor="start" direction="ltr" writing-mode="lr-tb" unicode-bidi="normal" text-decoration="none" transform="matrix(1 0 0 1 1168.75 1506)">2. </text><text fill="#4A148C" fill-opacity="1" font-family="Apple Color Emoji,Apple Color Emoji_MSFontService,sans-serif" font-style="normal" font-variant="normal" font-weight="400" font-stretch="normal" font-size="41" text-anchor="start" direction="ltr" writing-mode="lr-tb" unicode-bidi="normal" text-decoration="none" transform="matrix(1 0 0 1 1214.58 1506)">⚡</text><text fill="#4A148C" fill-opacity="1" font-family="Arial,Arial_MSFontService,sans-serif" font-style="normal" font-variant="normal" font-weight="400" font-stretch="normal" font-size="41" text-anchor="start" direction="ltr" writing-mode="lr-tb" unicode-bidi="normal" text-decoration="none" transform="matrix(1 0 0 1 1255.83 1506)"> </text><text fill="#4A148C" fill-opacity="1" font-family="Microsoft JhengHei,Microsoft JhengHei_MSFontService,sans-serif" font-style="normal" font-variant="normal" font-weight="400" font-stretch="normal" font-size="41" text-anchor="start" direction="ltr" writing-mode="lr-tb" unicode-bidi="normal" text-decoration="none" transform="matrix(1 0 0 1 1267.29 1506)">修改數量功能</text><text fill="#4A148C" fill-opacity="1" font-family="Arial,Arial_MSFontService,sans-serif" font-style="normal" font-variant="normal" font-weight="400" font-stretch="normal" font-size="41" text-anchor="start" direction="ltr" writing-mode="lr-tb" unicode-bidi="normal" text-decoration="none" transform="matrix(1 0 0 1 1168.75 1609)">3. </text><text fill="#4A148C" fill-opacity="1" font-family="Apple Color Emoji,Apple Color Emoji_MSFontService,sans-serif" font-style="normal" font-variant="normal" font-weight="400" font-stretch="normal" font-size="41" text-anchor="start" direction="ltr" writing-mode="lr-tb" unicode-bidi="normal" text-decoration="none" transform="matrix(1 0 0 1 1214.58 1609)">❌</text><text fill="#4A148C" fill-opacity="1" font-family="Microsoft JhengHei,Microsoft JhengHei_MSFontService,sans-serif" font-style="normal" font-variant="normal" font-weight="400" font-stretch="normal" font-size="41" text-anchor="start" direction="ltr" writing-mode="lr-tb" unicode-bidi="normal" text-decoration="none" transform="matrix(1 0 0 1 1267.29 1609)">刪除商品功能</text><text fill="#673AB7" fill-opacity="1" font-family="Apple Color Emoji,Apple Color Emoji_MSFontService,sans-serif" font-style="normal" font-variant="normal" font-weight="700" font-stretch="normal" font-size="62" text-anchor="start" direction="ltr" writing-mode="lr-tb" unicode-bidi="normal" text-decoration="none" transform="matrix(1 0 0 1 1100 1725)">🔗</text><text fill="#673AB7" fill-opacity="1" font-family="Arial,Arial_MSFontService,sans-serif" font-style="normal" font-variant="normal" font-weight="700" font-stretch="normal" font-size="62" text-anchor="start" direction="ltr" writing-mode="lr-tb" unicode-bidi="normal" text-decoration="none" transform="matrix(1 0 0 1 1163.02 1725)"> </text><text fill="#673AB7" fill-opacity="1" font-family="Microsoft JhengHei,Microsoft JhengHei_MSFontService,sans-serif" font-style="normal" font-variant="normal" font-weight="700" font-stretch="normal" font-size="62" text-anchor="start" direction="ltr" writing-mode="lr-tb" unicode-bidi="normal" text-decoration="none" transform="matrix(1 0 0 1 1180.21 1725)">相關資源</text><path d="M3286.28 1753.15C3293.87 1753.15 3300.03 1753.15 3300.03 1753.15L3300.03 2028.15C3300.03 2028.15 3293.87 2028.15 3286.28 2028.15L1113.78 2028.15C1106.18 2028.15 1100.03 2028.15 1100.03 2028.15L1100.03 1753.15C1100.03 1753.15 1106.18 1753.15 1113.78 1753.15Z" fill="#F3E5F5" fill-rule="evenodd" fill-opacity="1"/><text fill="#4A148C" fill-opacity="1" font-family="Arial,Arial_MSFontService,sans-serif" font-style="normal" font-variant="normal" font-weight="400" font-stretch="normal" font-size="41" text-anchor="start" direction="ltr" writing-mode="lr-tb" unicode-bidi="normal" text-decoration="none" transform="matrix(1 0 0 1 1168.75 1852)">• API </text><text fill="#4A148C" fill-opacity="1" font-family="Microsoft JhengHei,Microsoft JhengHei_MSFontService,sans-serif" font-style="normal" font-variant="normal" font-weight="400" font-stretch="normal" font-size="41" text-anchor="start" direction="ltr" writing-mode="lr-tb" unicode-bidi="normal" text-decoration="none" transform="matrix(1 0 0 1 1272.45 1852)">文件：</text><text fill="#4A148C" fill-opacity="1" font-family="Arial,Arial_MSFontService,sans-serif" font-style="normal" font-variant="normal" font-weight="400" font-stretch="normal" font-size="41" text-anchor="start" direction="ltr" writing-mode="lr-tb" unicode-bidi="normal" text-decoration="none" transform="matrix(1 0 0 1 1396.2 1852)">/api/cart</text><text fill="#4A148C" fill-opacity="1" font-family="Arial,Arial_MSFontService,sans-serif" font-style="normal" font-variant="normal" font-weight="400" font-stretch="normal" font-size="41" text-anchor="start" direction="ltr" writing-mode="lr-tb" unicode-bidi="normal" text-decoration="none" transform="matrix(1 0 0 1 1168.75 1955)">• </text><text fill="#4A148C" fill-opacity="1" font-family="Microsoft JhengHei,Microsoft JhengHei_MSFontService,sans-serif" font-style="normal" font-variant="normal" font-weight="400" font-stretch="normal" font-size="41" text-anchor="start" direction="ltr" writing-mode="lr-tb" unicode-bidi="normal" text-decoration="none" transform="matrix(1 0 0 1 1194.53 1955)">設計稿：</text><text fill="#4A148C" fill-opacity="1" font-family="Arial,Arial_MSFontService,sans-serif" font-style="normal" font-variant="normal" font-weight="400" font-stretch="normal" font-size="41" text-anchor="start" direction="ltr" writing-mode="lr-tb" unicode-bidi="normal" text-decoration="none" transform="matrix(1 0 0 1 1359.53 1955)">/</text><text fill="#4A148C" fill-opacity="1" font-family="Arial,Arial_MSFontService,sans-serif" font-style="normal" font-variant="normal" font-weight="400" font-stretch="normal" font-size="41" text-anchor="start" direction="ltr" writing-mode="lr-tb" unicode-bidi="normal" text-decoration="none" transform="matrix(1 0 0 1 1370.99 1955)">design/cart.fig</text><path d="M3375.52 2112.17C3390.71 2112.17 3403.02 2112.17 3403.02 2112.17L3403.02 2387.17C3403.02 2387.17 3390.71 2387.17 3375.52 2387.17L1024.52 2387.17C1009.33 2387.17 997.018 2387.17 997.018 2387.17L997.018 2112.17C997.018 2112.17 1009.33 2112.17 1024.52 2112.17Z" fill="#7E57C2" fill-rule="evenodd" fill-opacity="1"/><text fill="#FFFFFF" fill-opacity="1" font-family="Apple Color Emoji,Apple Color Emoji_MSFontService,sans-serif" font-style="normal" font-variant="normal" font-weight="700" font-stretch="normal" font-size="62" text-anchor="start" direction="ltr" writing-mode="lr-tb" unicode-bidi="normal" text-decoration="none" transform="matrix(1 0 0 1 1100 2224)">⏱️</text><text fill="#FFFFFF" fill-opacity="1" font-family="Arial,Arial_MSFontService,sans-serif" font-style="normal" font-variant="normal" font-weight="700" font-stretch="normal" font-size="62" text-anchor="start" direction="ltr" writing-mode="lr-tb" unicode-bidi="normal" text-decoration="none" transform="matrix(1 0 0 1 1163.02 2224)"> </text><text fill="#FFFFFF" fill-opacity="1" font-family="Microsoft JhengHei,Microsoft JhengHei_MSFontService,sans-serif" font-style="normal" font-variant="normal" font-weight="700" font-stretch="normal" font-size="62" text-anchor="start" direction="ltr" writing-mode="lr-tb" unicode-bidi="normal" text-decoration="none" transform="matrix(1 0 0 1 1180.21 2224)">時間估算</text><text fill="#FFFFFF" fill-opacity="1" font-family="Microsoft JhengHei,Microsoft JhengHei_MSFontService,sans-serif" font-style="normal" font-variant="normal" font-weight="400" font-stretch="normal" font-size="41" text-anchor="start" direction="ltr" writing-mode="lr-tb" unicode-bidi="normal" text-decoration="none" transform="matrix(1 0 0 1 1143.31 2306)">預計工時：</text><text fill="#FFFFFF" fill-opacity="1" font-family="Arial,Arial_MSFontService,sans-serif" font-style="normal" font-variant="normal" font-weight="400" font-stretch="normal" font-size="41" text-anchor="start" direction="ltr" writing-mode="lr-tb" unicode-bidi="normal" text-decoration="none" transform="matrix(1 0 0 1 1349.56 2306)">6 </text><text fill="#FFFFFF" fill-opacity="1" font-family="Microsoft JhengHei,Microsoft JhengHei_MSFontService,sans-serif" font-style="normal" font-variant="normal" font-weight="400" font-stretch="normal" font-size="41" text-anchor="start" direction="ltr" writing-mode="lr-tb" unicode-bidi="normal" text-decoration="none" transform="matrix(1 0 0 1 1383.94 2306)">小時</text><text fill="#FFFFFF" fill-opacity="1" font-family="Microsoft JhengHei,Microsoft JhengHei_MSFontService,sans-serif" font-style="normal" font-variant="normal" font-weight="400" font-stretch="normal" font-size="41" text-anchor="start" direction="ltr" writing-mode="lr-tb" unicode-bidi="normal" text-decoration="none" transform="matrix(1 0 0 1 1853.5 2304)">開始時間：</text><text fill="#FFFFFF" fill-opacity="1" font-family="Arial,Arial_MSFontService,sans-serif" font-style="normal" font-variant="normal" font-weight="400" font-stretch="normal" font-size="41" text-anchor="start" direction="ltr" writing-mode="lr-tb" unicode-bidi="normal" text-decoration="none" transform="matrix(1 0 0 1 2059.75 2304)">2024</text><text fill="#FFFFFF" fill-opacity="1" font-family="Arial,Arial_MSFontService,sans-serif" font-style="normal" font-variant="normal" font-weight="400" font-stretch="normal" font-size="41" text-anchor="start" direction="ltr" writing-mode="lr-tb" unicode-bidi="normal" text-decoration="none" transform="matrix(1 0 0 1 2151.42 2304)">-</text><text fill="#FFFFFF" fill-opacity="1" font-family="Arial,Arial_MSFontService,sans-serif" font-style="normal" font-variant="normal" font-weight="400" font-stretch="normal" font-size="41" text-anchor="start" direction="ltr" writing-mode="lr-tb" unicode-bidi="normal" text-decoration="none" transform="matrix(1 0 0 1 2165.17 2304)">01</text><text fill="#FFFFFF" fill-opacity="1" font-family="Arial,Arial_MSFontService,sans-serif" font-style="normal" font-variant="normal" font-weight="400" font-stretch="normal" font-size="41" text-anchor="start" direction="ltr" writing-mode="lr-tb" unicode-bidi="normal" text-decoration="none" transform="matrix(1 0 0 1 2211 2304)">-</text><text fill="#FFFFFF" fill-opacity="1" font-family="Arial,Arial_MSFontService,sans-serif" font-style="normal" font-variant="normal" font-weight="400" font-stretch="normal" font-size="41" text-anchor="start" direction="ltr" writing-mode="lr-tb" unicode-bidi="normal" text-decoration="none" transform="matrix(1 0 0 1 2224.75 2304)">20</text><text fill="#FFFFFF" fill-opacity="1" font-family="Microsoft JhengHei,Microsoft JhengHei_MSFontService,sans-serif" font-style="normal" font-variant="normal" font-weight="400" font-stretch="normal" font-size="41" text-anchor="start" direction="ltr" writing-mode="lr-tb" unicode-bidi="normal" text-decoration="none" transform="matrix(1 0 0 1 2631.06 2313)">預計完成：</text><text fill="#FFFFFF" fill-opacity="1" font-family="Arial,Arial_MSFontService,sans-serif" font-style="normal" font-variant="normal" font-weight="400" font-stretch="normal" font-size="41" text-anchor="start" direction="ltr" writing-mode="lr-tb" unicode-bidi="normal" text-decoration="none" transform="matrix(1 0 0 1 2837.31 2313)">2024</text><text fill="#FFFFFF" fill-opacity="1" font-family="Arial,Arial_MSFontService,sans-serif" font-style="normal" font-variant="normal" font-weight="400" font-stretch="normal" font-size="41" text-anchor="start" direction="ltr" writing-mode="lr-tb" unicode-bidi="normal" text-decoration="none" transform="matrix(1 0 0 1 2928.98 2313)">-</text><text fill="#FFFFFF" fill-opacity="1" font-family="Arial,Arial_MSFontService,sans-serif" font-style="normal" font-variant="normal" font-weight="400" font-stretch="normal" font-size="41" text-anchor="start" direction="ltr" writing-mode="lr-tb" unicode-bidi="normal" text-decoration="none" transform="matrix(1 0 0 1 2942.73 2313)">01</text><text fill="#FFFFFF" fill-opacity="1" font-family="Arial,Arial_MSFontService,sans-serif" font-style="normal" font-variant="normal" font-weight="400" font-stretch="normal" font-size="41" text-anchor="start" direction="ltr" writing-mode="lr-tb" unicode-bidi="normal" text-decoration="none" transform="matrix(1 0 0 1 2988.56 2313)">-</text><text fill="#FFFFFF" fill-opacity="1" font-family="Arial,Arial_MSFontService,sans-serif" font-style="normal" font-variant="normal" font-weight="400" font-stretch="normal" font-size="41" text-anchor="start" direction="ltr" writing-mode="lr-tb" unicode-bidi="normal" text-decoration="none" transform="matrix(1 0 0 1 3002.31 2313)">21</text><path d="M3291.49 619.043C3315.1 619.043 3334.24 619.043 3334.24 619.043L3334.24 705.043C3334.24 705.043 3315.1 705.043 3291.49 705.043L3205.99 705.043C3182.38 705.043 3163.24 705.043 3163.24 705.043L3163.24 619.043C3163.24 619.043 3182.38 619.043 3205.99 619.043Z" fill="#4CAF50" fill-rule="evenodd" fill-opacity="1"/><text fill="#FFFFFF" fill-opacity="1" font-family="Microsoft JhengHei,Microsoft JhengHei_MSFontService,sans-serif" font-style="normal" font-variant="normal" font-weight="400" font-stretch="normal" font-size="41" text-anchor="start" direction="ltr" writing-mode="lr-tb" unicode-bidi="normal" text-decoration="none" transform="matrix(1 0 0 1 3186.56 672)">進行中</text></g></g></svg>