<svg width="2750" height="2072" xmlns="http://www.w3.org/2000/svg" xmlns:xlink="http://www.w3.org/1999/xlink" xml:space="preserve" overflow="hidden"><g transform="translate(-825 -201)"><g><path d="M825 206 3575 206 3575 2269 825 2269Z" fill="#F8F9FA" fill-rule="evenodd" fill-opacity="1"/><path d="M3385.81 309C3395.31 309 3403 309 3403 309L3403 481C3403 481 3395.31 481 3385.81 481L1014.19 481C1004.69 481 997 481 997 481L997 309C997 309 1004.69 309 1014.19 309Z" fill="#2196F3" fill-rule="evenodd" fill-opacity="0.901961"/><text fill="#FFFFFF" fill-opacity="1" font-family="Microsoft JhengHei,Microsoft JhengHei_MSFontService,sans-serif" font-style="normal" font-variant="normal" font-weight="700" font-stretch="normal" font-size="83" text-anchor="start" direction="ltr" writing-mode="lr-tb" unicode-bidi="normal" text-decoration="none" transform="matrix(1 0 0 1 1952.5 410)">任務拆分方法</text><path d="M2139.01 550.536C2154.2 550.536 2166.52 550.536 2166.52 550.536L2166.52 2097.54C2166.52 2097.54 2154.2 2097.54 2139.01 2097.54L1025.02 2097.54C1009.83 2097.54 997.518 2097.54 997.518 2097.54L997.518 550.536C997.518 550.536 1009.83 550.536 1025.02 550.536Z" stroke="#DDDDDD" stroke-width="3.4375" stroke-linecap="butt" stroke-linejoin="miter" stroke-miterlimit="8" stroke-opacity="1" fill="#FFFFFF" fill-rule="evenodd" fill-opacity="1"/><path d="M2138.51 550.036C2153.7 550.036 2166.02 550.036 2166.02 550.036L2166.02 722.036C2166.02 722.036 2153.7 722.036 2138.51 722.036L1024.52 722.036C1009.33 722.036 997.018 722.036 997.018 722.036L997.018 550.036C997.018 550.036 1009.33 550.036 1024.52 550.036Z" fill="#1976D2" fill-rule="evenodd" fill-opacity="0.901961"/><text fill="#FFFFFF" fill-opacity="1" font-family="Microsoft JhengHei,Microsoft JhengHei_MSFontService,sans-serif" font-style="normal" font-variant="normal" font-weight="700" font-stretch="normal" font-size="62" text-anchor="start" direction="ltr" writing-mode="lr-tb" unicode-bidi="normal" text-decoration="none" transform="matrix(1 0 0 1 1457.5 655)">功能拆分</text><text fill="#1976D2" fill-opacity="1" font-family="Apple Color Emoji,Apple Color Emoji_MSFontService,sans-serif" font-style="normal" font-variant="normal" font-weight="700" font-stretch="normal" font-size="55" text-anchor="start" direction="ltr" writing-mode="lr-tb" unicode-bidi="normal" text-decoration="none" transform="matrix(1 0 0 1 1065.62 783)">📱</text><text fill="#1976D2" fill-opacity="1" font-family="Microsoft JhengHei,Microsoft JhengHei_MSFontService,sans-serif" font-style="normal" font-variant="normal" font-weight="700" font-stretch="normal" font-size="55" text-anchor="start" direction="ltr" writing-mode="lr-tb" unicode-bidi="normal" text-decoration="none" transform="matrix(1 0 0 1 1137.24 783)">使用者操作流程</text><path d="M2083.28 859.069C2090.87 859.069 2097.03 859.069 2097.03 859.069L2097.03 1066.07C2097.03 1066.07 2090.87 1066.07 2083.28 1066.07L1079.77 1066.07C1072.18 1066.07 1066.03 1066.07 1066.03 1066.07L1066.03 859.069C1066.03 859.069 1072.18 859.069 1079.77 859.069Z" fill="#E3F2FD" fill-rule="evenodd" fill-opacity="1"/><text fill="#0D47A1" fill-opacity="1" font-family="Arial,Arial_MSFontService,sans-serif" font-style="normal" font-variant="normal" font-weight="400" font-stretch="normal" font-size="41" text-anchor="start" direction="ltr" writing-mode="lr-tb" unicode-bidi="normal" text-decoration="none" transform="matrix(1 0 0 1 1134.37 941)">1. </text><text fill="#0D47A1" fill-opacity="1" font-family="Microsoft JhengHei,Microsoft JhengHei_MSFontService,sans-serif" font-style="normal" font-variant="normal" font-weight="400" font-stretch="normal" font-size="41" text-anchor="start" direction="ltr" writing-mode="lr-tb" unicode-bidi="normal" text-decoration="none" transform="matrix(1 0 0 1 1180.21 941)">瀏覽商品列表</text><text fill="#0D47A1" fill-opacity="1" font-family="Arial,Arial_MSFontService,sans-serif" font-style="normal" font-variant="normal" font-weight="400" font-stretch="normal" font-size="41" text-anchor="start" direction="ltr" writing-mode="lr-tb" unicode-bidi="normal" text-decoration="none" transform="matrix(1 0 0 1 1134.37 1009)">• </text><text fill="#0D47A1" fill-opacity="1" font-family="Microsoft JhengHei,Microsoft JhengHei_MSFontService,sans-serif" font-style="normal" font-variant="normal" font-weight="400" font-stretch="normal" font-size="41" text-anchor="start" direction="ltr" writing-mode="lr-tb" unicode-bidi="normal" text-decoration="none" transform="matrix(1 0 0 1 1160.16 1009)">查看商品資訊</text><path d="M1581.53 1083.56 1581.53 1152.56" stroke="#1976D2" stroke-width="6.875" stroke-linecap="butt" stroke-linejoin="miter" stroke-miterlimit="8" stroke-opacity="1" fill="none" fill-rule="evenodd"/><path d="M2083.28 1169.1C2090.87 1169.1 2097.03 1169.1 2097.03 1169.1L2097.03 1375.1C2097.03 1375.1 2090.87 1375.1 2083.28 1375.1L1079.77 1375.1C1072.18 1375.1 1066.03 1375.1 1066.03 1375.1L1066.03 1169.1C1066.03 1169.1 1072.18 1169.1 1079.77 1169.1Z" fill="#E3F2FD" fill-rule="evenodd" fill-opacity="1"/><text fill="#0D47A1" fill-opacity="1" font-family="Arial,Arial_MSFontService,sans-serif" font-style="normal" font-variant="normal" font-weight="400" font-stretch="normal" font-size="41" text-anchor="start" direction="ltr" writing-mode="lr-tb" unicode-bidi="normal" text-decoration="none" transform="matrix(1 0 0 1 1134.37 1250)">2. </text><text fill="#0D47A1" fill-opacity="1" font-family="Microsoft JhengHei,Microsoft JhengHei_MSFontService,sans-serif" font-style="normal" font-variant="normal" font-weight="400" font-stretch="normal" font-size="41" text-anchor="start" direction="ltr" writing-mode="lr-tb" unicode-bidi="normal" text-decoration="none" transform="matrix(1 0 0 1 1180.21 1250)">選擇商品數量</text><text fill="#0D47A1" fill-opacity="1" font-family="Arial,Arial_MSFontService,sans-serif" font-style="normal" font-variant="normal" font-weight="400" font-stretch="normal" font-size="41" text-anchor="start" direction="ltr" writing-mode="lr-tb" unicode-bidi="normal" text-decoration="none" transform="matrix(1 0 0 1 1134.37 1319)">• </text><text fill="#0D47A1" fill-opacity="1" font-family="Microsoft JhengHei,Microsoft JhengHei_MSFontService,sans-serif" font-style="normal" font-variant="normal" font-weight="400" font-stretch="normal" font-size="41" text-anchor="start" direction="ltr" writing-mode="lr-tb" unicode-bidi="normal" text-decoration="none" transform="matrix(1 0 0 1 1160.16 1319)">調整購買數量</text><path d="M1581.53 1392.56 1581.53 1461.56" stroke="#1976D2" stroke-width="6.875" stroke-linecap="butt" stroke-linejoin="miter" stroke-miterlimit="8" stroke-opacity="1" fill="none" fill-rule="evenodd"/><path d="M2083.28 1478.13C2090.87 1478.13 2097.03 1478.13 2097.03 1478.13L2097.03 1684.13C2097.03 1684.13 2090.87 1684.13 2083.28 1684.13L1079.77 1684.13C1072.18 1684.13 1066.03 1684.13 1066.03 1684.13L1066.03 1478.13C1066.03 1478.13 1072.18 1478.13 1079.77 1478.13Z" fill="#E3F2FD" fill-rule="evenodd" fill-opacity="1"/><text fill="#0D47A1" fill-opacity="1" font-family="Arial,Arial_MSFontService,sans-serif" font-style="normal" font-variant="normal" font-weight="400" font-stretch="normal" font-size="41" text-anchor="start" direction="ltr" writing-mode="lr-tb" unicode-bidi="normal" text-decoration="none" transform="matrix(1 0 0 1 1134.37 1559)">3. </text><text fill="#0D47A1" fill-opacity="1" font-family="Microsoft JhengHei,Microsoft JhengHei_MSFontService,sans-serif" font-style="normal" font-variant="normal" font-weight="400" font-stretch="normal" font-size="41" text-anchor="start" direction="ltr" writing-mode="lr-tb" unicode-bidi="normal" text-decoration="none" transform="matrix(1 0 0 1 1180.21 1559)">加入購物車</text><text fill="#0D47A1" fill-opacity="1" font-family="Arial,Arial_MSFontService,sans-serif" font-style="normal" font-variant="normal" font-weight="400" font-stretch="normal" font-size="41" text-anchor="start" direction="ltr" writing-mode="lr-tb" unicode-bidi="normal" text-decoration="none" transform="matrix(1 0 0 1 1134.37 1628)">• </text><text fill="#0D47A1" fill-opacity="1" font-family="Microsoft JhengHei,Microsoft JhengHei_MSFontService,sans-serif" font-style="normal" font-variant="normal" font-weight="400" font-stretch="normal" font-size="41" text-anchor="start" direction="ltr" writing-mode="lr-tb" unicode-bidi="normal" text-decoration="none" transform="matrix(1 0 0 1 1160.16 1628)">確認商品資訊</text><text fill="#1976D2" fill-opacity="1" font-family="Apple Color Emoji,Apple Color Emoji_MSFontService,sans-serif" font-style="normal" font-variant="normal" font-weight="700" font-stretch="normal" font-size="55" text-anchor="start" direction="ltr" writing-mode="lr-tb" unicode-bidi="normal" text-decoration="none" transform="matrix(1 0 0 1 1065.62 1780)">🔍</text><text fill="#1976D2" fill-opacity="1" font-family="Arial,Arial_MSFontService,sans-serif" font-style="normal" font-variant="normal" font-weight="700" font-stretch="normal" font-size="55" text-anchor="start" direction="ltr" writing-mode="lr-tb" unicode-bidi="normal" text-decoration="none" transform="matrix(1 0 0 1 1121.77 1780)"> </text><text fill="#1976D2" fill-opacity="1" font-family="Microsoft JhengHei,Microsoft JhengHei_MSFontService,sans-serif" font-style="normal" font-variant="normal" font-weight="700" font-stretch="normal" font-size="55" text-anchor="start" direction="ltr" writing-mode="lr-tb" unicode-bidi="normal" text-decoration="none" transform="matrix(1 0 0 1 1137.24 1780)">測試重點</text><path d="M2083.28 1856.17C2090.87 1856.17 2097.03 1856.17 2097.03 1856.17L2097.03 2028.17C2097.03 2028.17 2090.87 2028.17 2083.28 2028.17L1079.77 2028.17C1072.18 2028.17 1066.03 2028.17 1066.03 2028.17L1066.03 1856.17C1066.03 1856.17 1072.18 1856.17 1079.77 1856.17Z" fill="#E3F2FD" fill-rule="evenodd" fill-opacity="1"/><text fill="#0D47A1" fill-opacity="1" font-family="Arial,Arial_MSFontService,sans-serif" font-style="normal" font-variant="normal" font-weight="400" font-stretch="normal" font-size="41" text-anchor="start" direction="ltr" writing-mode="lr-tb" unicode-bidi="normal" text-decoration="none" transform="matrix(1 0 0 1 1134.37 1920)">• </text><text fill="#0D47A1" fill-opacity="1" font-family="Microsoft JhengHei,Microsoft JhengHei_MSFontService,sans-serif" font-style="normal" font-variant="normal" font-weight="400" font-stretch="normal" font-size="41" text-anchor="start" direction="ltr" writing-mode="lr-tb" unicode-bidi="normal" text-decoration="none" transform="matrix(1 0 0 1 1160.16 1920)">每個步驟可獨立測試</text><text fill="#0D47A1" fill-opacity="1" font-family="Arial,Arial_MSFontService,sans-serif" font-style="normal" font-variant="normal" font-weight="400" font-stretch="normal" font-size="41" text-anchor="start" direction="ltr" writing-mode="lr-tb" unicode-bidi="normal" text-decoration="none" transform="matrix(1 0 0 1 1134.37 1989)">• </text><text fill="#0D47A1" fill-opacity="1" font-family="Microsoft JhengHei,Microsoft JhengHei_MSFontService,sans-serif" font-style="normal" font-variant="normal" font-weight="400" font-stretch="normal" font-size="41" text-anchor="start" direction="ltr" writing-mode="lr-tb" unicode-bidi="normal" text-decoration="none" transform="matrix(1 0 0 1 1160.16 1989)">考慮錯誤處理和邊界情況</text><path d="M3376.14 550.536C3391.33 550.536 3403.65 550.536 3403.65 550.536L3403.65 2097.54C3403.65 2097.54 3391.33 2097.54 3376.14 2097.54L2262.15 2097.54C2246.96 2097.54 2234.65 2097.54 2234.65 2097.54L2234.65 550.536C2234.65 550.536 2246.96 550.536 2262.15 550.536Z" stroke="#DDDDDD" stroke-width="3.4375" stroke-linecap="butt" stroke-linejoin="miter" stroke-miterlimit="8" stroke-opacity="1" fill="#FFFFFF" fill-rule="evenodd" fill-opacity="1"/><path d="M3375.64 550.036C3390.83 550.036 3403.15 550.036 3403.15 550.036L3403.15 722.036C3403.15 722.036 3390.83 722.036 3375.64 722.036L2261.65 722.036C2246.46 722.036 2234.15 722.036 2234.15 722.036L2234.15 550.036C2234.15 550.036 2246.46 550.036 2261.65 550.036Z" fill="#00BCD4" fill-rule="evenodd" fill-opacity="0.901961"/><text fill="#FFFFFF" fill-opacity="1" font-family="Microsoft JhengHei,Microsoft JhengHei_MSFontService,sans-serif" font-style="normal" font-variant="normal" font-weight="700" font-stretch="normal" font-size="62" text-anchor="start" direction="ltr" writing-mode="lr-tb" unicode-bidi="normal" text-decoration="none" transform="matrix(1 0 0 1 2695 655)">技術拆分</text><text fill="#00838F" fill-opacity="1" font-family="Apple Color Emoji,Apple Color Emoji_MSFontService,sans-serif" font-style="normal" font-variant="normal" font-weight="700" font-stretch="normal" font-size="55" text-anchor="start" direction="ltr" writing-mode="lr-tb" unicode-bidi="normal" text-decoration="none" transform="matrix(1 0 0 1 2303.12 783)">🎨</text><text fill="#00838F" fill-opacity="1" font-family="Arial,Arial_MSFontService,sans-serif" font-style="normal" font-variant="normal" font-weight="700" font-stretch="normal" font-size="55" text-anchor="start" direction="ltr" writing-mode="lr-tb" unicode-bidi="normal" text-decoration="none" transform="matrix(1 0 0 1 2359.27 783)"> </text><text fill="#00838F" fill-opacity="1" font-family="Microsoft JhengHei,Microsoft JhengHei_MSFontService,sans-serif" font-style="normal" font-variant="normal" font-weight="700" font-stretch="normal" font-size="55" text-anchor="start" direction="ltr" writing-mode="lr-tb" unicode-bidi="normal" text-decoration="none" transform="matrix(1 0 0 1 2374.74 783)">前端介面</text><path d="M3320.41 859.061C3328 859.061 3334.16 859.061 3334.16 859.061L3334.16 1134.06C3334.16 1134.06 3328 1134.06 3320.41 1134.06L2316.9 1134.06C2309.31 1134.06 2303.16 1134.06 2303.16 1134.06L2303.16 859.061C2303.16 859.061 2309.31 859.061 2316.9 859.061Z" fill="#E0F7FA" fill-rule="evenodd" fill-opacity="1"/><text fill="#006064" fill-opacity="1" font-family="Arial,Arial_MSFontService,sans-serif" font-style="normal" font-variant="normal" font-weight="400" font-stretch="normal" font-size="41" text-anchor="start" direction="ltr" writing-mode="lr-tb" unicode-bidi="normal" text-decoration="none" transform="matrix(1 0 0 1 2371.87 941)">• HTML </text><text fill="#006064" fill-opacity="1" font-family="Microsoft JhengHei,Microsoft JhengHei_MSFontService,sans-serif" font-style="normal" font-variant="normal" font-weight="400" font-stretch="normal" font-size="41" text-anchor="start" direction="ltr" writing-mode="lr-tb" unicode-bidi="normal" text-decoration="none" transform="matrix(1 0 0 1 2521.41 941)">結構設計</text><text fill="#006064" fill-opacity="1" font-family="Arial,Arial_MSFontService,sans-serif" font-style="normal" font-variant="normal" font-weight="400" font-stretch="normal" font-size="41" text-anchor="start" direction="ltr" writing-mode="lr-tb" unicode-bidi="normal" text-decoration="none" transform="matrix(1 0 0 1 2371.87 1009)">• CSS </text><text fill="#006064" fill-opacity="1" font-family="Microsoft JhengHei,Microsoft JhengHei_MSFontService,sans-serif" font-style="normal" font-variant="normal" font-weight="400" font-stretch="normal" font-size="41" text-anchor="start" direction="ltr" writing-mode="lr-tb" unicode-bidi="normal" text-decoration="none" transform="matrix(1 0 0 1 2493.91 1009)">樣式開發</text><text fill="#006064" fill-opacity="1" font-family="Arial,Arial_MSFontService,sans-serif" font-style="normal" font-variant="normal" font-weight="400" font-stretch="normal" font-size="41" text-anchor="start" direction="ltr" writing-mode="lr-tb" unicode-bidi="normal" text-decoration="none" transform="matrix(1 0 0 1 2371.87 1078)">• JavaScript </text><text fill="#006064" fill-opacity="1" font-family="Microsoft JhengHei,Microsoft JhengHei_MSFontService,sans-serif" font-style="normal" font-variant="normal" font-weight="400" font-stretch="normal" font-size="41" text-anchor="start" direction="ltr" writing-mode="lr-tb" unicode-bidi="normal" text-decoration="none" transform="matrix(1 0 0 1 2601.61 1078)">互動實作</text><text fill="#00838F" fill-opacity="1" font-family="Apple Color Emoji,Apple Color Emoji_MSFontService,sans-serif" font-style="normal" font-variant="normal" font-weight="700" font-stretch="normal" font-size="55" text-anchor="start" direction="ltr" writing-mode="lr-tb" unicode-bidi="normal" text-decoration="none" transform="matrix(1 0 0 1 2303.12 1220)">💾</text><text fill="#00838F" fill-opacity="1" font-family="Arial,Arial_MSFontService,sans-serif" font-style="normal" font-variant="normal" font-weight="700" font-stretch="normal" font-size="55" text-anchor="start" direction="ltr" writing-mode="lr-tb" unicode-bidi="normal" text-decoration="none" transform="matrix(1 0 0 1 2359.27 1220)"> </text><text fill="#00838F" fill-opacity="1" font-family="Microsoft JhengHei,Microsoft JhengHei_MSFontService,sans-serif" font-style="normal" font-variant="normal" font-weight="700" font-stretch="normal" font-size="55" text-anchor="start" direction="ltr" writing-mode="lr-tb" unicode-bidi="normal" text-decoration="none" transform="matrix(1 0 0 1 2374.74 1220)">資料處理</text><path d="M3302.41 1251.1C3310 1251.1 3316.16 1251.1 3316.16 1251.1L3316.16 1526.1C3316.16 1526.1 3310 1526.1 3302.41 1526.1L2298.9 1526.1C2291.31 1526.1 2285.16 1526.1 2285.16 1526.1L2285.16 1251.1C2285.16 1251.1 2291.31 1251.1 2298.9 1251.1Z" fill="#E0F7FA" fill-rule="evenodd" fill-opacity="1"/><text fill="#006064" fill-opacity="1" font-family="Arial,Arial_MSFontService,sans-serif" font-style="normal" font-variant="normal" font-weight="400" font-stretch="normal" font-size="41" text-anchor="start" direction="ltr" writing-mode="lr-tb" unicode-bidi="normal" text-decoration="none" transform="matrix(1 0 0 1 2353.31 1332)">• </text><text fill="#006064" fill-opacity="1" font-family="Microsoft JhengHei,Microsoft JhengHei_MSFontService,sans-serif" font-style="normal" font-variant="normal" font-weight="400" font-stretch="normal" font-size="41" text-anchor="start" direction="ltr" writing-mode="lr-tb" unicode-bidi="normal" text-decoration="none" transform="matrix(1 0 0 1 2379.09 1332)">狀態管理設計</text><text fill="#006064" fill-opacity="1" font-family="Arial,Arial_MSFontService,sans-serif" font-style="normal" font-variant="normal" font-weight="400" font-stretch="normal" font-size="41" text-anchor="start" direction="ltr" writing-mode="lr-tb" unicode-bidi="normal" text-decoration="none" transform="matrix(1 0 0 1 2353.31 1401)">• API </text><text fill="#006064" fill-opacity="1" font-family="Microsoft JhengHei,Microsoft JhengHei_MSFontService,sans-serif" font-style="normal" font-variant="normal" font-weight="400" font-stretch="normal" font-size="41" text-anchor="start" direction="ltr" writing-mode="lr-tb" unicode-bidi="normal" text-decoration="none" transform="matrix(1 0 0 1 2457.01 1401)">介接實作</text><text fill="#006064" fill-opacity="1" font-family="Arial,Arial_MSFontService,sans-serif" font-style="normal" font-variant="normal" font-weight="400" font-stretch="normal" font-size="41" text-anchor="start" direction="ltr" writing-mode="lr-tb" unicode-bidi="normal" text-decoration="none" transform="matrix(1 0 0 1 2353.31 1469)">• </text><text fill="#006064" fill-opacity="1" font-family="Microsoft JhengHei,Microsoft JhengHei_MSFontService,sans-serif" font-style="normal" font-variant="normal" font-weight="400" font-stretch="normal" font-size="41" text-anchor="start" direction="ltr" writing-mode="lr-tb" unicode-bidi="normal" text-decoration="none" transform="matrix(1 0 0 1 2379.09 1469)">錯誤處理機制</text><text fill="#00838F" fill-opacity="1" font-family="Apple Color Emoji,Apple Color Emoji_MSFontService,sans-serif" font-style="normal" font-variant="normal" font-weight="700" font-stretch="normal" font-size="55" text-anchor="start" direction="ltr" writing-mode="lr-tb" unicode-bidi="normal" text-decoration="none" transform="matrix(1 0 0 1 2291.66 1610)">🧪</text><text fill="#00838F" fill-opacity="1" font-family="Arial,Arial_MSFontService,sans-serif" font-style="normal" font-variant="normal" font-weight="700" font-stretch="normal" font-size="55" text-anchor="start" direction="ltr" writing-mode="lr-tb" unicode-bidi="normal" text-decoration="none" transform="matrix(1 0 0 1 2347.81 1610)"> </text><text fill="#00838F" fill-opacity="1" font-family="Microsoft JhengHei,Microsoft JhengHei_MSFontService,sans-serif" font-style="normal" font-variant="normal" font-weight="700" font-stretch="normal" font-size="55" text-anchor="start" direction="ltr" writing-mode="lr-tb" unicode-bidi="normal" text-decoration="none" transform="matrix(1 0 0 1 2363.28 1610)">測試規劃</text><path d="M3311.41 1678.13C3319 1678.13 3325.16 1678.13 3325.16 1678.13L3325.16 1953.13C3325.16 1953.13 3319 1953.13 3311.41 1953.13L2307.9 1953.13C2300.31 1953.13 2294.15 1953.13 2294.15 1953.13L2294.15 1678.13C2294.15 1678.13 2300.31 1678.13 2307.9 1678.13Z" fill="#E0F7FA" fill-rule="evenodd" fill-opacity="1"/><text fill="#006064" fill-opacity="1" font-family="Arial,Arial_MSFontService,sans-serif" font-style="normal" font-variant="normal" font-weight="400" font-stretch="normal" font-size="41" text-anchor="start" direction="ltr" writing-mode="lr-tb" unicode-bidi="normal" text-decoration="none" transform="matrix(1 0 0 1 2362.25 1759)">• </text><text fill="#006064" fill-opacity="1" font-family="Microsoft JhengHei,Microsoft JhengHei_MSFontService,sans-serif" font-style="normal" font-variant="normal" font-weight="400" font-stretch="normal" font-size="41" text-anchor="start" direction="ltr" writing-mode="lr-tb" unicode-bidi="normal" text-decoration="none" transform="matrix(1 0 0 1 2388.03 1759)">單元測試編寫</text><text fill="#006064" fill-opacity="1" font-family="Arial,Arial_MSFontService,sans-serif" font-style="normal" font-variant="normal" font-weight="400" font-stretch="normal" font-size="41" text-anchor="start" direction="ltr" writing-mode="lr-tb" unicode-bidi="normal" text-decoration="none" transform="matrix(1 0 0 1 2362.25 1828)">• </text><text fill="#006064" fill-opacity="1" font-family="Microsoft JhengHei,Microsoft JhengHei_MSFontService,sans-serif" font-style="normal" font-variant="normal" font-weight="400" font-stretch="normal" font-size="41" text-anchor="start" direction="ltr" writing-mode="lr-tb" unicode-bidi="normal" text-decoration="none" transform="matrix(1 0 0 1 2388.03 1828)">整合測試設計</text><text fill="#006064" fill-opacity="1" font-family="Arial,Arial_MSFontService,sans-serif" font-style="normal" font-variant="normal" font-weight="400" font-stretch="normal" font-size="41" text-anchor="start" direction="ltr" writing-mode="lr-tb" unicode-bidi="normal" text-decoration="none" transform="matrix(1 0 0 1 2362.25 1897)">• </text><text fill="#006064" fill-opacity="1" font-family="Microsoft JhengHei,Microsoft JhengHei_MSFontService,sans-serif" font-style="normal" font-variant="normal" font-weight="400" font-stretch="normal" font-size="41" text-anchor="start" direction="ltr" writing-mode="lr-tb" unicode-bidi="normal" text-decoration="none" transform="matrix(1 0 0 1 2388.03 1897)">端對端測試</text></g></g></svg>