<?xml version="1.0" encoding="UTF-8"?>
<svg width="800" height="700" version="1.1" xmlns="http://www.w3.org/2000/svg">
    <!-- 背景 -->
    <rect width="100%" height="100%" fill="#f8f9fa"/>
    
    <!-- 標題 -->
    <text x="400" y="40" text-anchor="middle" font-family="Arial" font-size="24" fill="#212529">Git 分支：平行開發的世界</text>

    <!-- 說明文字 -->
    <g transform="translate(50,70)">
        <rect width="700" height="60" rx="5" fill="#fff9db" stroke="#ffd43b"/>
        <text x="350" y="25" text-anchor="middle" font-family="Arial" font-size="14" fill="#f08c00">
            分支就像是程式碼的平行宇宙
        </text>
        <text x="350" y="45" text-anchor="middle" font-family="Arial" font-size="12" fill="#495057">
            可以同時進行多個開發工作，互不影響，最後再合併回主幹
        </text>
    </g>

    <!-- 主要開發時間軸 -->
    <g transform="translate(100,200)">
        <!-- main 分支（主幹） -->
        <path d="M 50,50 L 600,50" stroke="#2b8a3e" stroke-width="4"/>
        <text x="30" y="55" text-anchor="end" font-family="Arial" font-size="16" fill="#2b8a3e">main</text>
        
        <!-- Commit 點 -->
        <circle cx="100" cy="50" r="8" fill="#2b8a3e"/>
        <circle cx="250" cy="50" r="8" fill="#2b8a3e"/>
        <circle cx="400" cy="50" r="8" fill="#2b8a3e"/>
        <circle cx="550" cy="50" r="8" fill="#2b8a3e"/>

        <!-- feature 分支 -->
        <path d="M 100,50 Q 150,50 175,100 L 325,100" stroke="#e64980" stroke-width="4"/>
        <text x="340" y="105" font-family="Arial" font-size="16" fill="#e64980">feature/新功能</text>
        <circle cx="175" cy="100" r="8" fill="#e64980"/>
        <circle cx="250" cy="100" r="8" fill="#e64980"/>
        <circle cx="325" cy="100" r="8" fill="#e64980"/>
        <!-- 合併箭頭 -->
        <path d="M 325,100 Q 350,100 400,50" stroke="#e64980" stroke-width="4" stroke-dasharray="5,5"/>

        <!-- bugfix 分支 -->
        <path d="M 250,50 Q 300,50 325,0 L 425,0" stroke="#4c6ef5" stroke-width="4"/>
        <text x="440" y="5" font-family="Arial" font-size="16" fill="#4c6ef5">bugfix/修復錯誤</text>
        <circle cx="325" cy="0" r="8" fill="#4c6ef5"/>
        <circle cx="375" cy="0" r="8" fill="#4c6ef5"/>
        <circle cx="425" cy="0" r="8" fill="#4c6ef5"/>
        <!-- 合併箭頭 -->
        <path d="M 425,0 Q 450,0 550,50" stroke="#4c6ef5" stroke-width="4" stroke-dasharray="5,5"/>
    </g>

    <!-- 分支說明 -->
    <g transform="translate(50,400)">
        <rect width="700" height="200" rx="5" fill="#e7f5ff" stroke="#74c0fc"/>
        
        <!-- 主分支說明 -->
        <g transform="translate(20,30)">
            <circle cx="10" cy="10" r="8" fill="#2b8a3e"/>
            <text x="30" y="15" font-family="Arial" font-size="16" fill="#2b8a3e">main 分支</text>
            <text x="30" y="35" font-family="Arial" font-size="14" fill="#495057">• 主要的開發分支</text>
            <text x="30" y="55" font-family="Arial" font-size="14" fill="#495057">• 穩定且可部署的版本</text>
        </g>

        <!-- 功能分支說明 -->
        <g transform="translate(250,30)">
            <circle cx="10" cy="10" r="8" fill="#e64980"/>
            <text x="30" y="15" font-family="Arial" font-size="16" fill="#e64980">feature 分支</text>
            <text x="30" y="35" font-family="Arial" font-size="14" fill="#495057">• 開發新功能</text>
            <text x="30" y="55" font-family="Arial" font-size="14" fill="#495057">• 完成後合併回 main</text>
        </g>

        <!-- 修復分支說明 -->
        <g transform="translate(480,30)">
            <circle cx="10" cy="10" r="8" fill="#4c6ef5"/>
            <text x="30" y="15" font-family="Arial" font-size="16" fill="#4c6ef5">bugfix 分支</text>
            <text x="30" y="35" font-family="Arial" font-size="14" fill="#495057">• 修復問題</text>
            <text x="30" y="55" font-family="Arial" font-size="14" fill="#495057">• 測試後合併回 main</text>
        </g>

        <!-- 分支優點 -->
        <g transform="translate(20,120)">
            <text x="0" y="0" font-family="Arial" font-size="16" fill="#1864ab">分支的優點：</text>
            <text x="0" y="25" font-family="Arial" font-size="14" fill="#495057">• 平行開發：多人可以同時進行不同的工作</text>
            <text x="0" y="50" font-family="Arial" font-size="14" fill="#495057">• 隔離環境：新功能開發不會影響到主要程式碼</text>
            <text x="350" y="25" font-family="Arial" font-size="14" fill="#495057">• 版本管理：每個功能都有獨立的開發歷史</text>
            <text x="350" y="50" font-family="Arial" font-size="14" fill="#495057">• 團隊協作：更容易進行程式碼審查和測試</text>
        </g>
    </g>
</svg> 