<?xml version="1.0" encoding="UTF-8"?>
<svg width="800" height="400" version="1.1" xmlns="http://www.w3.org/2000/svg">
  <defs>
    <!-- Gradient for background -->
    <linearGradient id="grad1" x1="0%" y1="0%" x2="100%" y2="0%">
      <stop offset="0%" style="stop-color:#f3f4f6;stop-opacity:1" />
      <stop offset="100%" style="stop-color:#ffffff;stop-opacity:1" />
    </linearGradient>
    
    <!-- Arrow marker -->
    <marker id="arrow" viewBox="0 0 10 10" refX="9" refY="5"
      markerWidth="6" markerHeight="6" orient="auto">
      <path d="M 0 0 L 10 5 L 0 10 z" fill="#4B5563"/>
    </marker>
  </defs>

  <!-- Background -->
  <rect width="100%" height="100%" fill="url(#grad1)"/>

  <!-- Input Sources (Left) -->
  <g transform="translate(50,50)">
    <!-- Paper Document -->
    <rect x="0" y="0" width="120" height="60" rx="5" fill="#E5E7EB" stroke="#4B5563"/>
    <text x="60" y="35" text-anchor="middle" fill="#1F2937">紙本文件</text>
    
    <!-- Excel -->
    <rect x="0" y="80" width="120" height="60" rx="5" fill="#E5E7EB" stroke="#4B5563"/>
    <text x="60" y="115" text-anchor="middle" fill="#1F2937">Excel表格</text>
    
    <!-- Form -->
    <rect x="0" y="160" width="120" height="60" rx="5" fill="#E5E7EB" stroke="#4B5563"/>
    <text x="60" y="195" text-anchor="middle" fill="#1F2937">處方箋/表單</text>
    
    <!-- Voice -->
    <rect x="0" y="240" width="120" height="60" rx="5" fill="#E5E7EB" stroke="#4B5563"/>
    <text x="60" y="275" text-anchor="middle" fill="#1F2937">電話記錄</text>
  </g>

  <!-- Processing Steps (Middle) -->
  <g transform="translate(300,80)">
    <!-- OCR/Conversion Layer -->
    <rect x="0" y="0" width="200" height="100" rx="10" fill="#93C5FD" stroke="#2563EB"/>
    <text x="100" y="45" text-anchor="middle" fill="#1E3A8A">轉換層</text>
    <text x="100" y="70" text-anchor="middle" fill="#1E3A8A" font-size="14">OCR / 格式轉換</text>
    
    <!-- LLM Processing Layer -->
    <rect x="0" y="140" width="200" height="100" rx="10" fill="#93C5FD" stroke="#2563EB"/>
    <text x="100" y="185" text-anchor="middle" fill="#1E3A8A">LLM 處理層</text>
    <text x="100" y="210" text-anchor="middle" fill="#1E3A8A" font-size="14">理解/分析/提取</text>
  </g>

  <!-- Output (Right) -->
  <g transform="translate(600,130)">
    <rect x="0" y="0" width="150" height="100" rx="10" fill="#34D399" stroke="#059669"/>
    <text x="75" y="45" text-anchor="middle" fill="#064E3B">標準化輸出</text>
    <text x="75" y="70" text-anchor="middle" fill="#064E3B" font-size="14">結構化數據</text>
  </g>

  <!-- Connecting Arrows -->
  <g stroke="#4B5563" stroke-width="2" marker-end="url(#arrow)">
    <!-- Input to OCR -->
    <line x1="170" y1="80" x2="290" y2="130"/>
    <line x1="170" y1="160" x2="290" y2="130"/>
    <line x1="170" y1="240" x2="290" y2="130"/>
    <line x1="170" y1="320" x2="290" y2="130"/>
    
    <!-- OCR to LLM -->
    <line x1="400" y1="130" x2="400" y2="210"/>
    
    <!-- LLM to Output -->
    <line x1="500" y1="180" x2="590" y2="180"/>
  </g>
</svg> 