<?xml version="1.0" encoding="UTF-8"?>
<svg width="800" height="400" version="1.1" xmlns="http://www.w3.org/2000/svg">
  <defs>
    <!-- Gradient for background -->
    <linearGradient id="grad1" x1="0%" y1="0%" x2="100%" y2="0%">
      <stop offset="0%" style="stop-color:#f3f4f6;stop-opacity:1" />
      <stop offset="100%" style="stop-color:#ffffff;stop-opacity:1" />
    </linearGradient>
    
    <!-- Arrow marker -->
    <marker id="arrow" viewBox="0 0 10 10" refX="9" refY="5"
      markerWidth="6" markerHeight="6" orient="auto">
      <path d="M 0 0 L 10 5 L 0 10 z" fill="#4B5563"/>
    </marker>
  </defs>

  <!-- Background -->
  <rect width="100%" height="100%" fill="url(#grad1)"/>

  <!-- Input Data Box -->
  <g transform="translate(50,150)">
    <rect x="0" y="0" width="150" height="100" rx="10" fill="#E5E7EB" stroke="#4B5563"/>
    <text x="75" y="45" text-anchor="middle" fill="#1F2937">輸入資料</text>
    <text x="75" y="70" text-anchor="middle" fill="#1F2937" font-size="14">(input_data)</text>
  </g>

  <!-- LLM Analysis Box -->
  <g transform="translate(300,50)">
    <rect x="0" y="0" width="200" height="100" rx="10" fill="#93C5FD" stroke="#2563EB"/>
    <text x="100" y="45" text-anchor="middle" fill="#1E3A8A">LLM 分析</text>
    <text x="100" y="70" text-anchor="middle" fill="#1E3A8A" font-size="14">理解與結構化</text>
  </g>

  <!-- Program Processing Box -->
  <g transform="translate(300,180)">
    <rect x="0" y="0" width="200" height="100" rx="10" fill="#93C5FD" stroke="#2563EB"/>
    <text x="100" y="45" text-anchor="middle" fill="#1E3A8A">程式處理</text>
    <text x="100" y="70" text-anchor="middle" fill="#1E3A8A" font-size="14">數據運算與驗證</text>
  </g>

  <!-- LLM Response Box -->
  <g transform="translate(300,310)">
    <rect x="0" y="0" width="200" height="100" rx="10" fill="#93C5FD" stroke="#2563EB"/>
    <text x="100" y="45" text-anchor="middle" fill="#1E3A8A">LLM 回應生成</text>
    <text x="100" y="70" text-anchor="middle" fill="#1E3A8A" font-size="14">智能回應產生</text>
  </g>

  <!-- Final Output Box -->
  <g transform="translate(600,150)">
    <rect x="0" y="0" width="150" height="100" rx="10" fill="#34D399" stroke="#059669"/>
    <text x="75" y="45" text-anchor="middle" fill="#064E3B">最終輸出</text>
    <text x="75" y="70" text-anchor="middle" fill="#064E3B" font-size="14">(response)</text>
  </g>

  <!-- Flow Arrows -->
  <g stroke="#4B5563" stroke-width="2" marker-end="url(#arrow)">
    <!-- Input to LLM Analysis -->
    <line x1="200" y1="200" x2="290" y2="100"/>
    
    <!-- LLM Analysis to Processing -->
    <line x1="400" y1="150" x2="400" y2="180"/>
    
    <!-- Processing to LLM Response -->
    <line x1="400" y1="280" x2="400" y2="310"/>
    
    <!-- LLM Response to Output -->
    <line x1="500" y1="360" x2="675" y2="250"/>
  </g>

  <!-- Process Labels -->
  <g font-size="12" fill="#4B5563">
    <text x="220" y="130" text-anchor="middle">analyze()</text>
    <text x="420" y="170" text-anchor="middle">process_data()</text>
    <text x="420" y="300" text-anchor="middle">generate_response()</text>
  </g>
</svg> 