<?xml version="1.0" encoding="UTF-8"?>
<svg width="800" height="600" xmlns="http://www.w3.org/2000/svg">
    <!-- Background -->
    <rect width="800" height="600" fill="#f8f9fa"/>
    
    <!-- Title -->
    <text x="400" y="40" font-size="24" text-anchor="middle" fill="#333">數據庫索引概念</text>
    
    <!-- Without Index Section (Left) -->
    <g transform="translate(50,80)">
        <text x="150" y="25" font-size="18" text-anchor="middle" fill="#333">沒有索引的查詢</text>
        
        <!-- Book Stack -->
        <g>
            <!-- Pages -->
            <rect x="50" y="50" width="200" height="250" fill="white" stroke="#4263eb" stroke-width="2" rx="5"/>
            <!-- Page Lines -->
            <g transform="translate(70,80)" fill="none" stroke="#666" stroke-width="1">
                <line x1="0" y1="0" x2="160" y2="0"/>
                <line x1="0" y1="20" x2="160" y2="20"/>
                <line x1="0" y1="40" x2="160" y2="40"/>
                <line x1="0" y1="60" x2="160" y2="60"/>
                <line x1="0" y1="80" x2="160" y2="80"/>
                <line x1="0" y1="100" x2="160" y2="100"/>
                <line x1="0" y1="120" x2="160" y2="120"/>
                <line x1="0" y1="140" x2="160" y2="140"/>
                <line x1="0" y1="160" x2="160" y2="160"/>
                <line x1="0" y1="180" x2="160" y2="180"/>
            </g>
            
            <!-- Search Arrow -->
            <path d="M70,60 L70,280" stroke="#ff4444" stroke-width="2" stroke-dasharray="5,5"/>
            <text x="90" y="170" fill="#ff4444" font-size="14">逐頁搜索</text>
        </g>
        
        <!-- Performance Indicator -->
        <g transform="translate(50,320)">
            <rect width="200" height="40" fill="#ffe4e4" stroke="#ff4444" stroke-width="1" rx="5"/>
            <text x="100" y="25" text-anchor="middle" fill="#ff4444" font-size="14">查詢時間：O(n)</text>
        </g>
    </g>
    
    <!-- With Index Section (Right) -->
    <g transform="translate(450,80)">
        <text x="150" y="25" font-size="18" text-anchor="middle" fill="#333">使用索引的查詢</text>
        
        <!-- Book with Index -->
        <g>
            <!-- Index Section -->
            <rect x="50" y="50" width="200" height="80" fill="#e7f5ff" stroke="#4263eb" stroke-width="2" rx="5"/>
            <text x="70" y="80" fill="#4263eb" font-size="14">索引目錄</text>
            <line x1="70" y1="90" x2="230" y2="90" stroke="#4263eb" stroke-width="1"/>
            <text x="70" y="110" fill="#4263eb" font-size="12">key_1 → page 2</text>
            
            <!-- Content Section -->
            <rect x="50" y="140" width="200" height="160" fill="white" stroke="#4263eb" stroke-width="2" rx="5"/>
            
            <!-- Search Path -->
            <path d="M70,110 L150,110 L150,200" stroke="#4263eb" stroke-width="2" marker-end="url(#arrowhead)"/>
            <text x="160" y="170" fill="#4263eb" font-size="14">直接定位</text>
        </g>
        
        <!-- Performance Indicator -->
        <g transform="translate(50,320)">
            <rect width="200" height="40" fill="#e7f5ff" stroke="#4263eb" stroke-width="1" rx="5"/>
            <text x="100" y="25" text-anchor="middle" fill="#4263eb" font-size="14">查詢時間：O(log n)</text>
        </g>
    </g>
    
    <!-- Bottom Explanation -->
    <g transform="translate(50,400)">
        <rect width="700" height="150" fill="white" stroke="#ddd" stroke-width="2" rx="5"/>
        <text x="20" y="30" font-size="16" fill="#333">索引的優勢：</text>
        <g transform="translate(20,50)" fill="#666">
            <text y="0" font-size="14">1. 快速定位：無需掃描整個表，直接找到目標數據的位置</text>
            <text y="25" font-size="14">2. 提升效率：大幅減少數據庫的搜索時間</text>
            <text y="50" font-size="14">3. 自動維護：數據庫自動更新索引，確保數據準確性</text>
            <text y="75" font-size="14">4. 適用場景：常用於查詢條件、排序和外鍵關係</text>
        </g>
    </g>
    
    <!-- Arrow Marker -->
    <defs>
        <marker id="arrowhead" markerWidth="10" markerHeight="7" refX="9" refY="3.5" orient="auto">
            <polygon points="0 0, 10 3.5, 0 7" fill="#4263eb"/>
        </marker>
    </defs>
</svg> 