<?xml version="1.0" encoding="UTF-8"?>
<svg width="800" height="500" xmlns="http://www.w3.org/2000/svg">
    <!-- Background -->
    <rect width="800" height="500" fill="#f8f9fa"/>
    
    <!-- Title -->
    <text x="400" y="40" font-size="24" text-anchor="middle" fill="#333">一對多關係：作者與書籍</text>
    
    <!-- Author Card -->
    <g transform="translate(100,80)">
        <!-- Author Background -->
        <rect x="0" y="0" width="200" height="180" fill="white" stroke="#4263eb" stroke-width="2" rx="10"/>
        <rect x="0" y="0" width="200" height="40" fill="#4263eb" rx="10"/>
        <text x="100" y="25" font-size="16" text-anchor="middle" fill="white">作者表 (Authors)</text>
        
        <!-- Author Icon -->
        <circle cx="50" cy="90" r="25" fill="#4263eb" opacity="0.2"/>
        <path d="M50,75 C45,75 40,80 40,85 C40,90 45,95 50,95 C55,95 60,90 60,85 C60,80 55,75 50,75" 
              fill="#4263eb"/>
        <circle cx="50" cy="100" r="15" fill="#4263eb"/>
        
        <!-- Author Fields -->
        <g transform="translate(90,70)" fill="#333">
            <text font-size="12">作者ID (PK)</text>
            <text y="20" font-size="12" fill="#4263eb">A001</text>
            <text y="40" font-size="12">姓名</text>
            <text y="60" font-size="12">國籍</text>
            <text y="80" font-size="12">簡介</text>
        </g>
    </g>
    
    <!-- Books -->
    <g transform="translate(450,80)">
        <!-- Book 1 -->
        <g transform="translate(0,0)">
            <rect x="0" y="0" width="250" height="80" fill="white" stroke="#4263eb" stroke-width="2" rx="5"/>
            <!-- Book Icon -->
            <rect x="10" y="15" width="40" height="50" fill="#4263eb" opacity="0.2" rx="2"/>
            <rect x="15" y="20" width="30" height="40" fill="#4263eb" opacity="0.4" rx="2"/>
            <!-- Book Fields -->
            <g transform="translate(60,20)" fill="#333">
                <text font-size="12">書籍ID: B001 (PK)</text>
                <text y="20" font-size="12">書名：數據庫設計</text>
                <text y="40" font-size="12">作者ID: A001 (FK)</text>
            </g>
        </g>
        
        <!-- Book 2 -->
        <g transform="translate(0,100)">
            <rect x="0" y="0" width="250" height="80" fill="white" stroke="#4263eb" stroke-width="2" rx="5"/>
            <!-- Book Icon -->
            <rect x="10" y="15" width="40" height="50" fill="#4263eb" opacity="0.2" rx="2"/>
            <rect x="15" y="20" width="30" height="40" fill="#4263eb" opacity="0.4" rx="2"/>
            <!-- Book Fields -->
            <g transform="translate(60,20)" fill="#333">
                <text font-size="12">書籍ID: B002 (PK)</text>
                <text y="20" font-size="12">書名：SQL入門</text>
                <text y="40" font-size="12">作者ID: A001 (FK)</text>
            </g>
        </g>
        
        <!-- Book 3 -->
        <g transform="translate(0,200)">
            <rect x="0" y="0" width="250" height="80" fill="white" stroke="#4263eb" stroke-width="2" rx="5"/>
            <!-- Book Icon -->
            <rect x="10" y="15" width="40" height="50" fill="#4263eb" opacity="0.2" rx="2"/>
            <rect x="15" y="20" width="30" height="40" fill="#4263eb" opacity="0.4" rx="2"/>
            <!-- Book Fields -->
            <g transform="translate(60,20)" fill="#333">
                <text font-size="12">書籍ID: B003 (PK)</text>
                <text y="20" font-size="12">書名：程式設計精要</text>
                <text y="40" font-size="12">作者ID: A001 (FK)</text>
            </g>
        </g>
    </g>
    
    <!-- Relationship Arrows -->
    <g transform="translate(300,140)">
        <!-- Main Arrow 1 -->
        <path d="M0,0 L150,0" stroke="#4263eb" stroke-width="2" marker-end="url(#arrowhead)"/>
        <!-- Main Arrow 2 -->
        <path d="M0,0 L150,100" stroke="#4263eb" stroke-width="2" marker-end="url(#arrowhead)"/>
        <!-- Main Arrow 3 -->
        <path d="M0,0 L150,200" stroke="#4263eb" stroke-width="2" marker-end="url(#arrowhead)"/>
        
        <!-- Relationship Text -->
        <text x="75" y="-10" font-size="14" text-anchor="middle" fill="#666">一對多關係</text>
        
        <!-- Cardinality -->
        <text x="20" y="-10" font-size="14" text-anchor="middle" fill="#666">1</text>
        <text x="130" y="-10" font-size="14" text-anchor="middle" fill="#666">N</text>
    </g>
    
    <!-- Description -->
    <g transform="translate(100,400)">
        <rect width="600" height="80" fill="white" stroke="#ddd" stroke-width="2" rx="5"/>
        <text x="20" y="30" font-size="14" fill="#333">說明：</text>
        <text x="20" y="55" font-size="14" fill="#666">• 一個作者可以寫多本書（一對多關係）</text>
        <text x="20" y="75" font-size="14" fill="#666">• 作者ID在書籍表中作為外鍵，用於建立關聯</text>
    </g>
    
    <!-- Arrow Marker -->
    <defs>
        <marker id="arrowhead" markerWidth="10" markerHeight="7" refX="9" refY="3.5" orient="auto">
            <polygon points="0 0, 10 3.5, 0 7" fill="#4263eb"/>
        </marker>
    </defs>
</svg> 